<?xml version="1.0" encoding="utf-8"?>
<!-- Generator: Adobe Illustrator 26.3.1, SVG Export Plug-In . SVG Version: 6.00 Build 0)  -->
<svg version="1.1" id="Calque_1" xmlns="http://www.w3.org/2000/svg" xmlns:xlink="http://www.w3.org/1999/xlink" x="0px" y="0px"
	 viewBox="0 0 15 18" style="enable-background:new 0 0 15 18;" xml:space="preserve">
<path d="M7.5,0.5C3.4,0.5,0,3.9,0,8s3.4,7.5,7.5,7.5S15,12.1,15,8S11.6,0.5,7.5,0.5z M5.4,11.8H3.6V6.4h1.8V11.8z M4.6,5.6
	C4.6,5.6,4.5,5.6,4.6,5.6c-0.6,0-1-0.4-1-0.9s0.4-0.9,1-0.9s1,0.4,1,0.9C5.6,5.3,5.1,5.7,4.6,5.6z M11.9,11.8h-1.8V8.9
	c0-0.7-0.3-1.2-0.9-1.2c-0.4,0-0.8,0.3-0.9,0.6C8.2,8.5,8.2,8.6,8.2,8.8v3H6.5V6.4h1.8v0.8c0.3-0.6,1-0.9,1.6-0.9
	C11,6.3,12,7,12,8.7L11.9,11.8z"/>
</svg>
