<?xml version="1.0" encoding="utf-8"?>
<!-- Generator: Adobe Illustrator 26.3.1, SVG Export Plug-In . SVG Version: 6.00 Build 0)  -->
<svg version="1.1" id="Calque_1" xmlns="http://www.w3.org/2000/svg" xmlns:xlink="http://www.w3.org/1999/xlink" x="0px" y="0px"
	 viewBox="0 0 20 25" style="enable-background:new 0 0 20 25;" xml:space="preserve">
<g id="Calque_1_00000138531153810285488360000015663878422337721491_">
	<path id="Tracé_110" d="M17.7,7.4v0.5c0.1,6.4-5,11.6-11.4,11.7c0,0,0,0,0,0H6.2c-2.2,0-4.3-0.6-6.2-1.8h1c1.8,0,3.6-0.6,5-1.8
		c-1.8,0-3.3-1.2-3.8-2.9c0.2,0,0.5,0.1,0.7,0.1c0.4,0,0.7,0,1.1-0.1c-1.8-0.5-3.1-2.1-3.1-4C1.4,9.4,2,9.6,2.6,9.6
		c-1.1-0.8-1.8-2-1.8-3.4c0-0.7,0.2-1.4,0.6-2.1c2.1,2.6,5.2,4.1,8.5,4.3c-0.1-0.3-0.1-0.6-0.1-1c0-2.2,1.8-4.1,4-4.1c0,0,0,0,0,0
		h0.1c1.1,0,2.2,0.5,3,1.3c0.9-0.2,1.8-0.5,2.6-1c-0.3,0.9-0.9,1.8-1.8,2.3c0.8-0.1,1.6-0.3,2.4-0.6C19.3,6.1,18.6,6.8,17.7,7.4z"/>
</g>
</svg>
