<?xml version="1.0" encoding="utf-8"?>
<!-- Generator: Adobe Illustrator 24.0.3, SVG Export Plug-In . SVG Version: 6.00 Build 0)  -->
<svg version="1.1" id="bullet" xmlns="http://www.w3.org/2000/svg" xmlns:xlink="http://www.w3.org/1999/xlink" x="0px" y="0px"
	 viewBox="0 0 12 12" style="enable-background:new 0 0 12 12;" xml:space="preserve">
<style type="text/css">
	.st0{fill:#079FFF;}
</style>
<path id="bullet-blue" class="st0" d="M6,2c2.2,0,4,1.8,4,4s-1.8,4-4,4S2,8.2,2,6S3.8,2,6,2 M6,0C2.7,0,0,2.7,0,6s2.7,6,6,6
	s6-2.7,6-6S9.3,0,6,0L6,0z"/>
<path id="pulse" class="st0" d="M6,0.3c3.1,0,5.7,2.6,5.7,5.7S9.1,11.7,6,11.7S0.3,9.1,0.3,6S2.9,0.3,6,0.3 M6,0C2.7,0,0,2.7,0,6
	s2.7,6,6,6s6-2.7,6-6S9.3,0,6,0L6,0z"/>
</svg>
