<svg xmlns="http://www.w3.org/2000/svg" xmlns:xlink="http://www.w3.org/1999/xlink" width="50" height="50" viewBox="0 0 50 50"><defs><style>.a{fill:none;}.b{clip-path:url(#a);}</style><clipPath id="a"><rect class="a" width="50" height="50"/></clipPath></defs><g class="b"><rect class="a" width="50" height="50"/><path d="M64-75.25A11.763,11.763,0,0,1,52.25-87,11.763,11.763,0,0,1,64-98.75,11.763,11.763,0,0,1,75.75-87,11.763,11.763,0,0,1,64-75.25Zm0-22A10.261,10.261,0,0,0,53.75-87,10.261,10.261,0,0,0,64-76.75,10.261,10.261,0,0,0,74.25-87,10.261,10.261,0,0,0,64-97.25Z" transform="translate(-39 112)"/></g></svg>