<?xml version="1.0" encoding="utf-8"?>
<!-- Generator: Adobe Illustrator 23.0.6, SVG Export Plug-In . SVG Version: 6.00 Build 0)  -->
<svg version="1.1" id="Calque_1" xmlns="http://www.w3.org/2000/svg" xmlns:xlink="http://www.w3.org/1999/xlink" x="0px" y="0px"
	 width="756px" height="100px" viewBox="0 0 756 100" style="enable-background:new 0 0 756 100;" xml:space="preserve">
<style type="text/css">
	.st0{fill:#FE414D;}
	.st1{fill:#079FFF;}
</style>
<g>
	<g>
		<g>
			<g>
				<path class="st0" d="M98.7,56.9c1.2,0,2.2-1,2.2-2.2c0-1.2-1-2.2-2.2-2.2c-1.2,0-2.2,1-2.2,2.2C96.5,55.9,97.5,56.9,98.7,56.9z"
					/>
				<rect x="97" y="61" class="st0" width="3.3" height="28.7"/>
				<path class="st0" d="M40.3,89.7c4.1,0,7.8-1.8,10.5-5l0,5l3.3,0l0-28.7l-3.3,0l0,4.9c-2.6-3.1-6.4-4.9-10.5-4.9
					c-7.7,0-13.9,6.4-13.9,14.3C26.4,83.2,32.7,89.7,40.3,89.7z M29.9,75.3c0-6,4.7-10.9,10.5-10.9c5.8,0,10.5,4.9,10.5,10.9l0,0.5
					c-0.3,5.9-4.8,10.5-10.5,10.5C34.6,86.3,29.9,81.3,29.9,75.3z"/>
				<path class="st0" d="M90.8,75.2c0-7.8-6.2-14.3-13.9-14.3c-4.1,0-7.8,1.8-10.5,4.9l0-4.9l-3.3,0l0,39l3.3,0l0-15.4
					c2.6,3.1,6.4,4.9,10.5,4.9C84.6,89.6,90.8,83.1,90.8,75.2z M76.9,86.2c-5.7,0-10.3-4.6-10.5-10.5l0-0.5c0-6,4.7-10.9,10.5-10.9
					c5.8,0,10.5,4.9,10.5,10.9C87.4,81.3,82.7,86.2,76.9,86.2z"/>
				<path class="st0" d="M153.9,60.9c-3.2,0-6.2,1.3-8.4,3.6l0-3.6l-3.3,0l0,28.7l3.3,0l0-17c0.1-4.6,3.9-8.4,8.4-8.4
					c4.6,0,8.4,3.7,8.4,8.4l0,17l3.3,0l0-17C165.5,66.2,160.3,60.9,153.9,60.9z"/>
				<path class="st0" d="M183,86.3l-0.3,0.1c-0.3,0.1-0.8,0.2-1.6,0.2c-1.4,0-1.9-0.8-1.9-2.9l0-19.5l4,0l0-3.3l-4,0l0-9.6l-3.5,0
					l0,9.6l-4,0l0,3.3l4,0l0,19.6c0,2.1,0.4,3.5,1.2,4.4c0.8,0.9,1.9,1.3,3.4,1.3c1.1,0,2.1-0.1,2.7-0.5l0.2-0.1L183,86.3z"/>
				<path class="st0" d="M130.3,81.4c-1.9,3-5.2,5-8.8,5c-5.6,0-10.2-4.4-10.6-10.2l22.8,0c0.9,0,1.7-0.7,1.7-1.5l0-0.3
					c-0.6-7.6-6.6-13.3-13.8-13.3c-7.7,0-13.9,6.4-13.9,14.4c0,7.8,6.2,14.3,13.9,14.3c4.7,0,9-2.4,11.6-6.4L130.3,81.4z
					 M121.5,64.3c5,0,9.2,3.6,10.2,8.5l-20.6,0C112.3,67.8,116.4,64.3,121.5,64.3z"/>
				<path class="st0" d="M18.7,75.8c0,0-0.9-0.7-1.8-1.1c-1-0.4-2.3-0.8-5.1-1.5C11.4,73.1,11,73,10.7,73c-1.9-0.4-3.3-1.1-4.4-1.9
					c-1-0.9-1.4-1.7-1.4-2.6c0.1-1.1,0.7-2.1,1.8-2.9c1.3-1,3.1-1.4,5.2-1.3c2.4,0.1,4.2,1.3,6.1,2.7l0.2,0.1l2.4-2.3
					c-0.3-0.3-0.4-0.3-1.2-0.9c-1.9-1.3-4.3-2.7-7.5-2.8c-2.8-0.1-5.2,0.5-7.1,1.6c-2.1,1.4-3.3,3.4-3.4,5.6c0,1.6,0.3,3.1,1.9,4.6
					c1.9,1.9,4.9,2.8,7.7,3.3c2.3,0.4,4.5,1.3,5.6,2.2c1.3,1.2,1.7,2.1,1.7,3.3c-0.1,1.2-0.8,2.3-2.2,3.2c-1.3,1-3.2,1.5-5.2,1.4
					c-2.6-0.1-5.3-1.2-8-3.4l-0.2-0.1L0.3,85l0.3,0.2c3.2,2.8,6.6,4.2,10.2,4.4c2.7,0.1,5.1-0.5,7.3-2c2.2-1.5,3.5-3.5,3.6-5.7
					C21.8,79.6,20.7,77.3,18.7,75.8z"/>
			</g>
			<g>
				<g>
					<path d="M142.1,31.3c-1.9,1.5-4.4,2.4-7.1,2.4c-6.2,0-11.3-4.9-11.3-11c0-6,5.1-11,11.3-11c2.7,0,5.1,0.9,7.1,2.4l2.4-2.4
						c-2.6-2.1-5.9-3.4-9.5-3.4c-8.1,0-14.7,6.4-14.7,14.3s6.6,14.3,14.7,14.3c3.7,0,6.9-1.3,9.5-3.4L142.1,31.3z"/>
				</g>
				<g>
					<path d="M27.7,22.8c0-7.8-6.2-14.3-13.9-14.3c-4.1,0-7.8,1.8-10.5,4.9l0-4.9L0,8.5l0,39l3.3,0l0-15.4c2.6,3.1,6.4,4.9,10.5,4.9
						C21.5,37.1,27.7,30.7,27.7,22.8z M13.8,33.8c-5.7,0-10.3-4.6-10.5-10.5l0-0.5c0-6,4.7-10.9,10.5-10.9s10.5,4.9,10.5,10.9
						C24.3,28.8,19.6,33.8,13.8,33.8z"/>
				</g>
				<g>
					<path d="M53,8.5l0,16.9c0,4.7-3.7,8.4-8.4,8.4c-4.7-0.1-8.3-3.7-8.3-8.4l0-16.9l-3.3,0l0,16.9c0,6.5,5.2,11.8,11.6,11.8
						c6.5,0,11.8-5.3,11.8-11.8l0-16.9L53,8.5z"/>
				</g>
				<g>
					<path d="M76.9,8.5c-4.1,0-7.8,1.8-10.5,5l0-13.4l-3.3,0l0,37.1l3.3,0l0-5c2.6,3.1,6.4,4.9,10.5,4.9c7.7,0,13.9-6.4,13.9-14.3
						C90.8,14.9,84.5,8.5,76.9,8.5z M87.4,22.8c0,6-4.7,10.9-10.5,10.9c-5.8,0-10.5-4.9-10.5-10.9l0-0.5c0.3-5.9,4.8-10.5,10.5-10.5
						C82.7,11.9,87.4,16.8,87.4,22.8z"/>
				</g>
				<g>
					<path d="M111.9,4.4c1.2,0,2.2-1,2.2-2.2s-1-2.2-2.2-2.2c-1.2,0-2.2,1-2.2,2.2C109.7,3.4,110.7,4.4,111.9,4.4z"/>
				</g>
				<g>
					<rect x="110.2" y="8.5" width="3.3" height="28.7"/>
				</g>
				<g>
					<path d="M154.1,4.4c1.2,0,2.2-1,2.2-2.2s-1-2.2-2.2-2.2s-2.2,1-2.2,2.2C151.9,3.4,152.9,4.4,154.1,4.4z"/>
				</g>
				<g>
					<rect x="152.4" y="8.5" width="3.3" height="28.7"/>
				</g>
				<g>
					<path d="M180.8,23.3c0,0-0.9-0.7-1.8-1.1c-1-0.4-2.3-0.8-5.1-1.5c-0.4-0.1-0.8-0.2-1.1-0.3c-1.9-0.4-3.3-1.1-4.4-1.9
						c-1-0.9-1.4-1.7-1.4-2.6c0.1-1.1,0.7-2.1,1.8-2.9c1.3-1,3.1-1.4,5.2-1.3c2.4,0.1,4.2,1.3,6.1,2.7l0.2,0.1l2.4-2.3
						c-0.3-0.3-0.4-0.3-1.2-0.9c-1.9-1.3-4.3-2.7-7.5-2.8c-2.8-0.1-5.2,0.5-7.1,1.6c-2.1,1.4-3.3,3.4-3.4,5.6c0,1.6,0.3,3.1,1.9,4.6
						c1.9,1.9,4.9,2.8,7.7,3.3c2.3,0.4,4.5,1.3,5.6,2.2c1.3,1.2,1.7,2.1,1.7,3.3c-0.1,1.2-0.8,2.3-2.2,3.2c-1.3,1-3.2,1.5-5.2,1.4
						c-2.6-0.1-5.3-1.2-8-3.4l-0.2-0.1l-2.4,2.2l0.3,0.2c3.2,2.8,6.6,4.2,10.2,4.4c2.7,0.1,5.1-0.5,7.3-2c2.2-1.5,3.5-3.5,3.6-5.7
						C184,27.1,182.8,24.7,180.8,23.3z"/>
				</g>
				<g>
					<rect x="96.9" y="0.1" width="3.3" height="37.1"/>
				</g>
			</g>
		</g>
	</g>
	<g>
		<path class="st1" d="M232.5,89.7V71.4h7.1c3.3,0,5.1,1.6,5.1,4.8c0,1.7-0.7,3-2,3.8c2.9,0.5,3.7,2.3,3.7,4.6
			c0,3.3-2.5,5.2-6.3,5.2H232.5z M237.3,78.6h0.9c1.5,0,2.2-0.6,2.2-1.8c0-1.2-0.7-1.8-2.2-1.8h-0.9V78.6z M237.3,86h1
			c2.4,0,3.3-0.6,3.3-1.9c0-1.4-1-1.9-3.3-1.9h-1V86z"/>
		<path class="st1" d="M254.4,80.9l-6.6-9.5h5.7l3.4,5l3.3-5h5.8l-6.9,9.5v8.8h-4.8V80.9z"/>
		<path class="st1" d="M290,75.4h-5.7v3.1h5.3v4h-5.3v3.2h5.7v4h-10.4V71.4H290V75.4z"/>
		<path class="st1" d="M295.2,89.7V71.4h4.8l8.8,11.2V71.4h4.8v18.3h-4.8L300,78.5v11.2H295.2z"/>
		<path class="st1" d="M328.4,79.5h9.4c0,2-0.2,3.7-0.7,4.9c-1.4,3.7-4.6,5.9-8.7,5.9c-5.8,0-9.8-3.9-9.8-9.7c0-5.8,3.9-9.8,10-9.8
			c3.8,0,6.6,1.7,8.2,5.1l-4.5,1.9c-0.8-1.9-2.1-2.9-3.9-2.9c-2.8,0-4.8,2.5-4.8,5.7c0,3.3,2,5.8,4.9,5.8c2.2,0,3.4-1,3.8-3.2h-3.9
			V79.5z"/>
		<path class="st1" d="M347.5,71.4v18.3h-4.8V71.4H347.5z"/>
		<path class="st1" d="M353.1,89.7V71.4h4.8l8.8,11.2V71.4h4.8v18.3h-4.8l-8.8-11.2v11.2H353.1z"/>
		<path class="st1" d="M387.5,75.4h-5.7v3.1h5.3v4h-5.3v3.2h5.7v4h-10.4V71.4h10.4V75.4z"/>
		<path class="st1" d="M403.2,75.4h-5.7v3.1h5.3v4h-5.3v3.2h5.7v4h-10.4V71.4h10.4V75.4z"/>
		<path class="st1" d="M423.6,89.7h-5.9l-4.5-7v7h-4.8V71.4h7.4c4.1,0,6,2.6,6,5.7c0,2.8-1.4,4.5-4,5.1L423.6,89.7z M413.2,79.6h0.9
			c1.9,0,2.9-0.8,2.9-2.3s-1-2.3-2.9-2.3h-0.9V79.6z"/>
		<path class="st1" d="M437.5,76.1c-1-0.8-2.1-1.2-3.1-1.2c-1.1,0-2,0.7-2,1.6c0,0.5,0.3,0.9,0.9,1.2c0.3,0.2,1.1,0.4,2.4,0.8
			c3.1,1,4.5,2.4,4.5,5.1c0,4-2.6,6.5-7.1,6.5c-2.3,0-4.4-0.7-6.4-2.1l2-3.8c1.4,1.3,2.8,1.9,4.2,1.9c1.4,0,2.3-0.7,2.3-1.8
			c0-1-0.5-1.4-2.8-2.1c-1.7-0.5-2.9-1-3.5-1.5c-0.9-0.8-1.4-2-1.4-3.6c0-3.7,2.5-6.2,6.2-6.2c2,0,3.9,0.5,5.8,1.5L437.5,76.1z"/>
		<path class="st1" d="M470.4,86c-2.3,2.8-4.9,4-6,4c-0.8,0-1.6-0.5-1-3.6l0.4-1.8h-0.1c-1.2,1.6-2.4,2.8-3.4,3.6
			c-1,0.9-2.4,1.7-3.6,1.7c-1.4,0-2.4-1.5-2.4-4.2c0-3.3,1.5-6.6,3.7-8.7c1.6-1.4,4.5-3,7.3-3c0.6,0,1.4,0.1,2.2,0.2
			c0.8,0.2,1.4,0.2,2,0.2l0.2,0.1c-0.7,3-1.5,6.6-2.2,10.6c-0.2,1-0.1,1.3,0.1,1.3c0.3,0,1.5-0.9,2.2-1.6L470.4,86z M464.2,82
			c0.4-1.7,1.1-4.6,1.2-5.6c-0.5-0.3-1.3-0.5-2-0.5c-0.6,0-1,0.1-1.5,0.4c-2.1,1.6-3.2,5.8-3.2,8.7c0,1.3,0.3,1.9,0.7,1.9
			C460.6,87,463.6,83.2,464.2,82z"/>
		<path class="st1" d="M484.2,76.3l-3.2,0.1l-1.8,8.6c-0.3,1.5-0.2,2,0.2,2c0.5,0,1.9-1,2.8-1.8l0.5,0.9c-1.3,1.8-4.4,3.9-6.3,3.9
			c-1.2,0-2-1.2-1.2-4.8l1.9-8.8h-2.4l-0.2-0.3l1-1.3h2l0.7-3.1l3.9-2.5l0.4,0.3l-1.2,5.3h3.7L484.2,76.3z"/>
		<path class="st1" d="M503,83.6v6.1h-4.8V71.4h7.6c1.5,0,2.8,0.3,3.8,0.9c1.7,1.1,2.6,2.8,2.6,5.2c0,4-2.2,6.1-6.2,6.1H503z
			 M503,79.8h1.6c1.8,0,2.6-0.7,2.6-2.3c0-1.5-0.9-2.3-2.6-2.3H503V79.8z"/>
		<path class="st1" d="M521.2,71.4v9.9c0,1.1,0,1.9,0.1,2.3c0.3,1.4,1.5,2.4,3.1,2.4c1.1,0,2-0.4,2.6-1.2c0.5-0.8,0.7-1.4,0.7-3.5
			v-9.9h4.7v10.6c0,1.5-0.1,2.7-0.5,3.6c-1,2.8-4,4.6-7.6,4.6c-2.6,0-4.6-0.7-6-2.1c-1.4-1.4-1.8-3-1.8-6.1V71.4H521.2z"/>
		<path class="st1" d="M538.1,89.7V71.4h7.1c3.3,0,5.1,1.6,5.1,4.8c0,1.7-0.7,3-2,3.8c2.9,0.5,3.7,2.3,3.7,4.6
			c0,3.3-2.5,5.2-6.3,5.2H538.1z M542.9,78.6h0.9c1.5,0,2.2-0.6,2.2-1.8c0-1.2-0.7-1.8-2.2-1.8h-0.9V78.6z M542.9,86h1
			c2.4,0,3.3-0.6,3.3-1.9c0-1.4-1-1.9-3.3-1.9h-1V86z"/>
		<path class="st1" d="M561.5,71.4v14.3h5.7v4h-10.5V71.4H561.5z"/>
		<path class="st1" d="M576.3,71.4v18.3h-4.8V71.4H576.3z"/>
		<path class="st1" d="M595.1,77.6c-1.1-1.3-2.5-2-4.1-2c-2.8,0-4.9,2.1-4.9,5.1c0,2.8,2.1,4.9,4.9,4.9c1.5,0,2.9-0.7,4.1-1.9v5.6
			l-0.5,0.2c-1.5,0.5-2.7,0.7-3.8,0.7c-5.1,0-9.8-3.8-9.8-9.5c0-5.6,4.4-9.7,9.7-9.7c1.3,0,2.8,0.3,4.3,0.9V77.6z"/>
		<path class="st1" d="M604.7,71.4v18.3H600V71.4H604.7z"/>
		<path class="st1" d="M620.4,76.1c-1-0.8-2.1-1.2-3.1-1.2c-1.1,0-2,0.7-2,1.6c0,0.5,0.3,0.9,0.9,1.2c0.3,0.2,1.1,0.4,2.4,0.8
			c3.1,1,4.5,2.4,4.5,5.1c0,4-2.6,6.5-7.1,6.5c-2.3,0-4.4-0.7-6.4-2.1l2-3.8c1.4,1.3,2.8,1.9,4.2,1.9c1.4,0,2.3-0.7,2.3-1.8
			c0-1-0.5-1.4-2.8-2.1c-1.7-0.5-2.9-1-3.5-1.5c-0.9-0.8-1.4-2-1.4-3.6c0-3.7,2.5-6.2,6.2-6.2c2,0,3.9,0.5,5.8,1.5L620.4,76.1z"/>
		<path class="st1" d="M648,76.1c-1-0.8-2.1-1.2-3.1-1.2c-1.1,0-2,0.7-2,1.6c0,0.5,0.3,0.9,0.9,1.2c0.3,0.2,1.1,0.4,2.4,0.8
			c3.1,1,4.5,2.4,4.5,5.1c0,4-2.6,6.5-7.1,6.5c-2.3,0-4.4-0.7-6.4-2.1l2-3.8c1.4,1.3,2.8,1.9,4.2,1.9c1.4,0,2.3-0.7,2.3-1.8
			c0-1-0.5-1.4-2.8-2.1c-1.7-0.5-2.9-1-3.5-1.5c-0.9-0.8-1.4-2-1.4-3.6c0-3.7,2.5-6.2,6.2-6.2c2,0,3.9,0.5,5.8,1.5L648,76.1z"/>
		<path class="st1" d="M666.3,86.5h-6.6l-1.3,3.2h-5l7-18.3h5.2l6.9,18.3h-5.1L666.3,86.5z M665,82.9l-2-5.9l-2,5.9H665z"/>
		<path class="st1" d="M681.2,83.6v6.1h-4.8V71.4h7.6c1.5,0,2.8,0.3,3.8,0.9c1.7,1.1,2.6,2.8,2.6,5.2c0,4-2.2,6.1-6.2,6.1H681.2z
			 M681.2,79.8h1.6c1.8,0,2.6-0.7,2.6-2.3c0-1.5-0.9-2.3-2.6-2.3h-1.6V79.8z"/>
		<path class="st1" d="M699.5,71.4v18.3h-4.8V71.4H699.5z"/>
		<path class="st1" d="M715.6,75.4h-5.7v3.1h5.3v4h-5.3v3.2h5.7v4h-10.4V71.4h10.4V75.4z"/>
		<path class="st1" d="M720.9,89.7V71.4h4.8l8.8,11.2V71.4h4.8v18.3h-4.8l-8.8-11.2v11.2H720.9z"/>
		<path class="st1" d="M751.7,75.4v14.3H747V75.4h-3.9v-4h12.6v4H751.7z"/>
	</g>
</g>
</svg>
