<svg xmlns="http://www.w3.org/2000/svg" width="16.216" height="45.773" viewBox="0 0 16.216 45.773"><defs><style>.a{fill:#fe414d;}</style></defs><g transform="translate(-493.8 -849.2)"><path d="M503.84,849.2a7.584,7.584,0,0,0-5.767,2.734V849.2H496.2v21.609h1.872v-8.576a7.469,7.469,0,0,0,5.767,2.734,7.886,7.886,0,0,0,0-15.767Zm0,13.932a5.984,5.984,0,0,1-5.767-6.067V856.8a5.788,5.788,0,1,1,11.572.225,6,6,0,0,1-5.8,6.1Z" transform="translate(-1.501)"/><path class="a" d="M500.429,940.547a7.571,7.571,0,0,0,4.681-1.273,4.753,4.753,0,0,0,2.284-3.67,4.624,4.624,0,0,0-1.91-3.895c-1.236-.9-.562-.449-1.161-.674a21.043,21.043,0,0,0-3.333-1.011c-.112-.037-.225-.037-.3-.075-.15-.037-.262-.075-.412-.112a8.889,8.889,0,0,1-2.921-1.236,2.132,2.132,0,0,1-.936-1.835,2.547,2.547,0,0,1,1.236-1.985,5.623,5.623,0,0,1,3.483-.9,7.583,7.583,0,0,1,4.082,1.8l.037.037,1.423-1.311a5.747,5.747,0,0,0-.637-.487,9.17,9.17,0,0,0-4.831-1.835,8.036,8.036,0,0,0-4.569,1.049,4.524,4.524,0,0,0-2.172,3.558,3.7,3.7,0,0,0,1.2,2.959,9.811,9.811,0,0,0,4.906,2.172,8.381,8.381,0,0,1,3.708,1.5,2.507,2.507,0,0,1-.262,4.419,5.307,5.307,0,0,1-3.483.936,9.337,9.337,0,0,1-5.318-2.247l-.037-.037-1.386,1.273.037.037a10.732,10.732,0,0,0,6.591,2.846Z" transform="translate(0 -45.583)"/></g></svg>