<?xml version="1.0" encoding="utf-8"?>
<!-- Generator: Adobe Illustrator 23.0.4, SVG Export Plug-In . SVG Version: 6.00 Build 0)  -->
<svg version="1.2" baseProfile="tiny" id="Calque_1"
	 xmlns="http://www.w3.org/2000/svg" xmlns:xlink="http://www.w3.org/1999/xlink" x="0px" y="0px" width="1427px" height="200px"
	 viewBox="0 0 1427 200" xml:space="preserve">
<g>
	<g>
		<path fill="#FFFFFF" d="M284.2,62.6c-3.9,3.1-8.9,4.9-14.3,4.9c-12.5,0-22.6-9.8-22.6-22c0-12.1,10.2-22,22.6-22
			c5.4,0,10.3,1.8,14.3,4.9l4.8-4.8c-5.1-4.2-11.8-6.8-19-6.8c-16.2,0-29.5,12.9-29.5,28.7s13.1,28.7,29.5,28.7
			c7.3,0,13.9-2.6,19-6.8L284.2,62.6z"/>
		<g>
			<path fill="#FE414D" d="M197.4,113.8c2.4,0,4.4-1.9,4.4-4.4c0-2.4-1.9-4.4-4.4-4.4c-2.4,0-4.4,1.9-4.4,4.4
				C193.1,111.8,195,113.8,197.4,113.8z"/>
			<rect x="194" y="121.9" fill="#FE414D" width="6.7" height="57.4"/>
		</g>
		<path fill="#FFFFFF" d="M55.4,45.5C55.4,29.8,43,17,27.7,17c-8.2,0-15.7,3.6-21,9.8V17H0V95h6.7V64.3c5.3,6.3,12.9,9.9,21,9.9
			C43,74.2,55.4,61.4,55.4,45.5z M27.7,67.5c-11.3,0-20.6-9.3-21-21.1v-0.9c0-12,9.4-21.7,21-21.7s21,9.8,21,21.7
			C48.6,57.6,39.2,67.5,27.7,67.5z"/>
		<path fill="#FE414D" d="M80.6,179.3c8.1,0,15.7-3.6,21-9.9v10h6.7v-57.4h-6.7v9.8c-5.3-6.3-12.7-9.8-21-9.8
			c-15.3,0-27.8,12.9-27.8,28.6C52.9,166.3,65.3,179.3,80.6,179.3z M59.7,150.5c0-12,9.4-21.7,21-21.7s21,9.8,21,21.7v0.9
			c-0.5,11.8-9.6,21.1-21,21.1C69.1,172.5,59.7,162.6,59.7,150.5z"/>
		<path fill="#FE414D" d="M181.6,150.5c0-15.7-12.5-28.6-27.8-28.6c-8.2,0-15.7,3.6-21,9.8v-9.8h-6.7V200h6.7v-30.7
			c5.3,6.3,12.9,9.9,21,9.9C169.1,179.3,181.6,166.3,181.6,150.5z M153.8,172.5c-11.3,0-20.6-9.3-21-21.1v-0.9
			c0-12,9.4-21.7,21-21.7s21,9.8,21,21.7C174.8,162.6,165.4,172.5,153.8,172.5z"/>
		<path fill="#FFFFFF" d="M106,17v33.8c0,9.4-7.5,16.7-16.8,16.8c-9.4-0.1-16.6-7.5-16.6-16.8V17h-6.7v33.8
			c0,13,10.4,23.5,23.3,23.5c13,0,23.5-10.5,23.5-23.5V17H106z"/>
		<path fill="#FFFFFF" d="M153.8,17c-8.1,0-15.7,3.6-21,9.9V0.1h-6.7v74.2h6.7v-9.9c5.3,6.3,12.7,9.8,21,9.8
			c15.3,0,27.8-12.9,27.8-28.6C181.6,29.8,169.1,17,153.8,17z M174.8,45.7c0,12-9.4,21.7-21,21.7s-21-9.8-21-21.7v-0.9
			c0.5-11.8,9.6-21.1,21-21.1C165.4,23.7,174.8,33.6,174.8,45.7z"/>
		<path fill="#FFFFFF" d="M223.8,8.7c2.4,0,4.4-1.9,4.4-4.4S226.2,0,223.8,0c-2.4,0-4.4,1.9-4.4,4.4C219.5,6.8,221.5,8.7,223.8,8.7z
			"/>
		<rect x="220.5" y="17" fill="#FFFFFF" width="6.7" height="57.4"/>
		<path fill="#FFFFFF" d="M308.3,8.7c2.4,0,4.4-1.9,4.4-4.4S310.7,0,308.3,0s-4.4,1.9-4.4,4.4C303.9,6.8,305.9,8.7,308.3,8.7z"/>
		<rect x="305" y="17" fill="#FFFFFF" width="6.7" height="57.4"/>
		<path fill="#FE414D" d="M307.8,121.9c-6.4,0-12.5,2.6-16.8,7.2v-7.2h-6.6v57.4h6.6v-34c0.3-9.3,7.8-16.7,16.8-16.7
			c9.3,0,16.7,7.5,16.7,16.7v34h6.7v-34C331.1,132.5,320.6,121.9,307.8,121.9z"/>
		<path fill="#FE414D" d="M366,172.7l-0.6,0.1c-0.6,0.1-1.7,0.4-3.2,0.4c-2.7,0-3.9-1.7-3.9-5.8v-39.1h8v-6.6h-8v-19.3h-6.9v19.3h-8
			v6.6h8v39.2c0,4.2,0.8,7.1,2.4,8.9c1.5,1.8,3.9,2.7,6.8,2.7c2.2,0,4.1-0.3,5.4-0.9l0.4-0.1L366,172.7z"/>
		<path fill="#FE414D" d="M260.6,162.8c-3.7,6-10.4,9.9-17.6,9.9c-11.2,0-20.3-8.9-21.2-20.5h45.5c1.8,0,3.3-1.4,3.3-3.1v-0.5
			c-1.2-15.2-13.1-26.6-27.7-26.6c-15.3,0-27.8,12.9-27.8,28.8c0,15.7,12.5,28.6,27.8,28.6c9.4,0,18-4.8,23.2-12.9L260.6,162.8z
			 M243,128.6c9.9,0,18.4,7.2,20.5,17.1h-41.2C224.6,135.7,232.9,128.6,243,128.6z"/>
		<path fill="#FE414D" d="M37.4,151.6c0,0-1.8-1.4-3.6-2.2c-1.9-0.8-4.6-1.7-10.3-3.1c-0.8-0.1-1.5-0.4-2.2-0.5
			c-3.7-0.9-6.7-2.2-8.9-3.7c-2.1-1.8-2.8-3.3-2.8-5.3c0.1-2.2,1.4-4.2,3.6-5.8c2.6-1.9,6.3-2.8,10.4-2.6c4.8,0.3,8.4,2.6,12.2,5.4
			l0.4,0.3l4.9-4.5c-0.6-0.5-0.8-0.6-2.3-1.8c-3.9-2.6-8.6-5.4-14.9-5.7c-5.5-0.3-10.4,0.9-14.3,3.2c-4.1,2.8-6.7,6.8-6.8,11.2
			c0,3.2,0.6,6.2,3.9,9.3c3.9,3.7,9.8,5.7,15.3,6.7c4.6,0.9,9,2.6,11.2,4.5c2.6,2.4,3.5,4.1,3.5,6.6c-0.1,2.3-1.7,4.6-4.4,6.3
			c-2.7,1.9-6.4,3.1-10.4,2.8c-5.3-0.3-10.7-2.4-16.1-6.8l-0.4-0.3L0.6,170l0.5,0.4c6.3,5.5,13.2,8.5,20.5,8.9
			c5.4,0.3,10.2-1,14.5-4c4.5-3.1,6.9-7.1,7.2-11.4C43.6,159.1,41.3,154.5,37.4,151.6z"/>
		<path fill="#FFFFFF" d="M361.8,46.7c0,0-1.8-1.4-3.6-2.2c-1.9-0.8-4.6-1.7-10.3-3.1c-0.8-0.1-1.5-0.4-2.2-0.5
			c-3.7-0.9-6.7-2.2-8.9-3.7c-2.1-1.8-2.8-3.3-2.8-5.3c0.1-2.2,1.4-4.2,3.6-5.8c2.6-1.9,6.3-2.8,10.4-2.6c4.8,0.3,8.4,2.6,12.2,5.4
			l0.4,0.3l4.9-4.5c-0.6-0.5-0.8-0.6-2.3-1.8c-3.9-2.6-8.6-5.4-14.9-5.7c-5.5-0.3-10.4,0.9-14.3,3.2c-4.1,2.8-6.7,6.8-6.8,11.2
			c0,3.2,0.6,6.2,3.9,9.3c3.9,3.7,9.8,5.7,15.3,6.7c4.6,0.9,9,2.6,11.2,4.5c2.6,2.4,3.5,4.1,3.5,6.6c-0.1,2.3-1.7,4.6-4.4,6.3
			c-2.7,1.9-6.4,3.1-10.4,2.8c-5.3-0.3-10.7-2.4-16.1-6.8l-0.4-0.3l-4.8,4.4l0.5,0.4c6.3,5.5,13.2,8.5,20.5,8.9
			c5.4,0.3,10.2-1,14.5-4c4.5-3.1,6.9-7.1,7.2-11.4C368.1,54.1,365.8,49.5,361.8,46.7z"/>
		<rect x="194" y="0.1" fill="#FFFFFF" width="6.7" height="74.2"/>
	</g>
	<rect x="427.8" fill="#FFFFFF" width="6" height="200"/>
	<g>
		<path fill="#FFFFFF" d="M542.9,55.3h-42.6V92h41.5v6.1h-41.5v46.7h42.6v6.1h-49.1V49.1h49.1V55.3z"/>
		<path fill="#FFFFFF" d="M657.6,49.1v104.4L571.5,64v86.9h-6.5V48l86,89.5V49.1H657.6z"/>
		<path fill="#FFFFFF" d="M739.8,102H783c0,11.7-1.9,20.8-5.6,27.1c-8,14-26.3,23.4-43.7,23.4c-28.6,0-52.9-23.5-52.9-52.2
			c0-28.4,23.8-52.7,53.5-52.7c18.2,0,30.9,7.2,44.5,23.9l-5.3,4.2c-11.8-15.3-23.1-21.9-39.5-21.9c-24.9,0-46.5,21.3-46.5,46.7
			c0,25,21.1,45.9,46.1,45.9c6.5,0,13.1-1.5,19.5-4.3c14.3-6.5,22-16.1,22.9-34h-36.1V102z"/>
		<path fill="#FFFFFF" d="M811.5,49.1v101.8H805V49.1H811.5z"/>
		<path fill="#FFFFFF" d="M932,49.1v104.4L845.8,64v86.9h-6.5V48l86,89.5V49.1H932z"/>
		<path fill="#FFFFFF" d="M1008.9,55.3h-42.6V92h41.5v6.1h-41.5v46.7h42.6v6.1h-49.1V49.1h49.1V55.3z"/>
		<path fill="#FFFFFF" d="M1080,55.3h-42.6V92h41.5v6.1h-41.5v46.7h42.6v6.1h-49.1V49.1h49.1V55.3z"/>
		<path fill="#FFFFFF" d="M1116.5,49.1c22.6,0,32.1,10.4,32.1,27c0,15.1-7.8,25.7-29.3,26.7l33.5,48.1h-8l-33.1-48.1h-3.1v48.1h-6.5
			V49.1H1116.5z M1108.6,96.8h9.9c15.4,0,23.3-6.8,23.3-20.8c0-13.9-8.7-20.7-24.8-20.7h-8.4V96.8z"/>
		<path fill="#FFFFFF" d="M1180.5,49.1v101.8h-6.5V49.1H1180.5z"/>
		<path fill="#FFFFFF" d="M1300.9,49.1v104.4L1214.8,64v86.9h-6.5V48l86,89.5V49.1H1300.9z"/>
		<path fill="#FFFFFF" d="M1383.1,102h43.1c0,11.7-1.9,20.8-5.6,27.1c-8,14-26.3,23.4-43.7,23.4c-28.6,0-52.9-23.5-52.9-52.2
			c0-28.4,23.8-52.7,53.5-52.7c18.2,0,30.9,7.2,44.5,23.9l-5.3,4.2c-11.8-15.3-23.1-21.9-39.5-21.9c-24.9,0-46.5,21.3-46.5,46.7
			c0,25,21.1,45.9,46.1,45.9c6.5,0,13.1-1.5,19.5-4.3c14.3-6.5,22-16.1,22.9-34h-36.1V102z"/>
	</g>
</g>
</svg>
