<svg xmlns="http://www.w3.org/2000/svg" width="178.046" height="25" viewBox="0 0 178.046 25"><defs><style>.a{fill:#fe414d;}</style></defs><g transform="translate(-24.967 129)"><path d="M60.45-121.17a2.853,2.853,0,0,1-1.782.611,2.785,2.785,0,0,1-2.826-2.75,2.8,2.8,0,0,1,2.826-2.749,2.88,2.88,0,0,1,1.782.611l.594-.6a3.735,3.735,0,0,0-2.376-.852,3.639,3.639,0,0,0-3.677,3.585,3.629,3.629,0,0,0,3.677,3.586,3.7,3.7,0,0,0,2.376-.853Z"/><path class="a" d="M49.612-114.772a.542.542,0,0,0,.546-.546.542.542,0,0,0-.546-.547.542.542,0,0,0-.546.547A.552.552,0,0,0,49.612-114.772Z"/><rect class="a" width="0.835" height="7.17" transform="translate(49.179 -113.759)"/><path d="M31.887-123.309a3.53,3.53,0,0,0-3.468-3.569,3.409,3.409,0,0,0-2.617,1.222v-1.222h-.835v9.759H25.8v-3.842a3.4,3.4,0,0,0,2.617,1.238A3.534,3.534,0,0,0,31.887-123.309Zm-3.468,2.75A2.665,2.665,0,0,1,25.8-123.2v-.113a2.672,2.672,0,0,1,2.617-2.717,2.672,2.672,0,0,1,2.617,2.717A2.691,2.691,0,0,1,28.419-120.559Z"/><path class="a" d="M35.034-106.588a3.4,3.4,0,0,0,2.617-1.238v1.254h.835v-7.171h-.835v1.222a3.36,3.36,0,0,0-2.617-1.222,3.529,3.529,0,0,0-3.468,3.569A3.543,3.543,0,0,0,35.034-106.588Zm-2.617-3.6a2.672,2.672,0,0,1,2.617-2.717,2.672,2.672,0,0,1,2.617,2.717v.113a2.674,2.674,0,0,1-2.617,2.636A2.69,2.69,0,0,1,32.417-110.19Z"/><path class="a" d="M47.637-110.19a3.529,3.529,0,0,0-3.468-3.569,3.412,3.412,0,0,0-2.617,1.222v-1.222h-.835V-104h.835v-3.842a3.4,3.4,0,0,0,2.617,1.238A3.523,3.523,0,0,0,47.637-110.19Zm-3.468,2.749a2.664,2.664,0,0,1-2.617-2.636v-.113a2.672,2.672,0,0,1,2.617-2.717,2.672,2.672,0,0,1,2.617,2.717A2.69,2.69,0,0,1,44.169-107.441Z"/><path d="M38.2-126.878v4.228a2.1,2.1,0,0,1-2.1,2.107,2.075,2.075,0,0,1-2.071-2.107v-4.228h-.835v4.228a2.926,2.926,0,0,0,2.906,2.943,2.943,2.943,0,0,0,2.939-2.943v-4.228Z"/><path d="M44.169-126.878a3.4,3.4,0,0,0-2.617,1.238v-3.344h-.835v9.277h.835v-1.238a3.364,3.364,0,0,0,2.617,1.222,3.529,3.529,0,0,0,3.468-3.57A3.533,3.533,0,0,0,44.169-126.878Zm2.617,3.585a2.672,2.672,0,0,1-2.617,2.717,2.672,2.672,0,0,1-2.617-2.717v-.112a2.676,2.676,0,0,1,2.617-2.637A2.69,2.69,0,0,1,46.786-123.293Z"/><path d="M52.9-127.907a.542.542,0,0,0,.546-.546A.542.542,0,0,0,52.9-129a.542.542,0,0,0-.546.547A.563.563,0,0,0,52.9-127.907Z"/><rect width="0.835" height="7.17" transform="translate(52.486 -126.878)"/><path d="M63.452-127.907a.542.542,0,0,0,.546-.546.542.542,0,0,0-.546-.547.542.542,0,0,0-.546.547A.542.542,0,0,0,63.452-127.907Z"/><rect width="0.835" height="7.17" transform="translate(63.035 -126.878)"/><path class="a" d="M63.388-113.759a2.876,2.876,0,0,0-2.1.9v-.9h-.819v7.171h.819v-4.245a2.14,2.14,0,0,1,2.1-2.09,2.085,2.085,0,0,1,2.087,2.09v4.245h.835v-4.245A2.945,2.945,0,0,0,63.388-113.759Z"/><path class="a" d="M70.661-107.408l-.08.016a1.791,1.791,0,0,1-.4.048c-.337,0-.482-.209-.482-.724v-4.887h1v-.82h-1v-2.411h-.867v2.411h-1v.82h1v4.9a1.579,1.579,0,0,0,.305,1.109,1.067,1.067,0,0,0,.851.337,1.6,1.6,0,0,0,.674-.112l.049-.016Z"/><path class="a" d="M57.5-108.646a2.6,2.6,0,0,1-2.2,1.238,2.7,2.7,0,0,1-2.649-2.557h5.684a.409.409,0,0,0,.417-.385v-.065a3.508,3.508,0,0,0-3.452-3.328,3.537,3.537,0,0,0-3.468,3.6,3.529,3.529,0,0,0,3.468,3.569,3.4,3.4,0,0,0,2.89-1.608Zm-2.2-4.277a2.638,2.638,0,0,1,2.553,2.138H52.711A2.67,2.67,0,0,1,55.3-112.923Z"/><path class="a" d="M29.639-110.045a2.358,2.358,0,0,0-.45-.273,9.708,9.708,0,0,0-1.284-.386c-.1-.016-.193-.048-.273-.064a3.242,3.242,0,0,1-1.108-.467.831.831,0,0,1-.353-.659.976.976,0,0,1,.449-.723,1.969,1.969,0,0,1,1.3-.322,2.8,2.8,0,0,1,1.525.675l.048.032.611-.562c-.081-.065-.1-.081-.289-.225a3.545,3.545,0,0,0-1.863-.708,3.158,3.158,0,0,0-1.782.4,1.8,1.8,0,0,0-.851,1.4,1.452,1.452,0,0,0,.482,1.158,3.764,3.764,0,0,0,1.91.836,3.237,3.237,0,0,1,1.4.562,1.052,1.052,0,0,1,.434.82,1.039,1.039,0,0,1-.546.788,2.036,2.036,0,0,1-1.3.354,3.473,3.473,0,0,1-2.007-.852l-.048-.033-.594.547.064.048a4.185,4.185,0,0,0,2.553,1.11,2.878,2.878,0,0,0,1.814-.5,1.879,1.879,0,0,0,.9-1.431A1.8,1.8,0,0,0,29.639-110.045Z"/><path d="M70.132-123.164a2.357,2.357,0,0,0-.45-.273,9.758,9.758,0,0,0-1.284-.386c-.1-.016-.193-.048-.273-.064a3.243,3.243,0,0,1-1.108-.467.831.831,0,0,1-.353-.659.973.973,0,0,1,.449-.723,1.973,1.973,0,0,1,1.3-.322,2.8,2.8,0,0,1,1.525.675l.048.033.61-.563c-.08-.064-.1-.081-.289-.225a3.541,3.541,0,0,0-1.862-.708,3.154,3.154,0,0,0-1.782.4,1.8,1.8,0,0,0-.851,1.4,1.454,1.454,0,0,0,.481,1.158,3.767,3.767,0,0,0,1.911.836,3.237,3.237,0,0,1,1.4.562,1.051,1.051,0,0,1,.433.82,1.037,1.037,0,0,1-.546.788,2.033,2.033,0,0,1-1.3.354,3.464,3.464,0,0,1-2.007-.852l-.048-.033-.594.547.064.048a4.185,4.185,0,0,0,2.553,1.11,2.878,2.878,0,0,0,1.814-.5,1.875,1.875,0,0,0,.9-1.431A1.721,1.721,0,0,0,70.132-123.164Z"/><rect width="0.835" height="9.277" transform="translate(49.179 -128.984)"/><rect width="0.749" height="25" transform="translate(78.365 -129)"/><path d="M92.737-122.086H87.42v4.59H92.6v.76H87.42v5.839h5.317v.759H86.6v-12.724h6.133Z"/><path d="M107.059-122.862v13.045L96.305-121.006v10.868h-.816V-123l10.738,11.188v-11.053Z"/><path d="M117.32-116.247h5.386a6.837,6.837,0,0,1-.7,3.392,6.463,6.463,0,0,1-5.453,2.92,6.632,6.632,0,0,1-6.609-6.531,6.679,6.679,0,0,1,6.677-6.582c2.276,0,3.856.895,5.555,2.987l-.662.524c-1.478-1.907-2.889-2.734-4.927-2.734a5.924,5.924,0,0,0-5.81,5.839,5.814,5.814,0,0,0,5.759,5.737,5.957,5.957,0,0,0,2.429-.54,4.388,4.388,0,0,0,2.854-4.252h-4.5Z"/><path d="M126.274-122.862v12.724h-.816v-12.724Z"/><path d="M141.309-122.862v13.045l-10.754-11.189v10.868h-.816V-123l10.737,11.188v-11.053Z"/><path d="M150.908-122.086H145.59v4.59h5.182v.76H145.59v5.839h5.318v.759h-6.133v-12.724h6.133Z"/><path d="M159.793-122.086h-5.318v4.59h5.182v.76h-5.182v5.839h5.318v.759H153.66v-12.724h6.133Z"/><path d="M164.346-122.862c2.82,0,4.009,1.3,4.009,3.375,0,1.89-.968,3.207-3.652,3.342l4.179,6.007h-1l-4.129-6.007h-.39v6.007h-.816v-12.724Zm-.985,5.957h1.24c1.92,0,2.9-.844,2.9-2.6,0-1.738-1.087-2.582-3.092-2.582h-1.053Z"/><path d="M172.331-122.862v12.724h-.816v-12.724Z"/><path d="M187.366-122.862v13.045l-10.754-11.189v10.868H175.8V-123l10.737,11.188v-11.053Z"/><path d="M197.628-116.247h5.385a6.849,6.849,0,0,1-.7,3.392,6.464,6.464,0,0,1-5.454,2.92,6.632,6.632,0,0,1-6.609-6.531,6.679,6.679,0,0,1,6.677-6.582c2.277,0,3.857.895,5.555,2.987l-.662.524c-1.478-1.907-2.888-2.734-4.927-2.734a5.924,5.924,0,0,0-5.81,5.839,5.814,5.814,0,0,0,5.759,5.737,5.961,5.961,0,0,0,2.43-.54,4.39,4.39,0,0,0,2.854-4.252h-4.5Z"/></g></svg>