<?xml version="1.0" encoding="utf-8"?>
<!-- Generator: Adobe Illustrator 21.0.2, SVG Export Plug-In . SVG Version: 6.00 Build 0)  -->
<svg version="1.1" id="Calque_1" xmlns="http://www.w3.org/2000/svg" xmlns:xlink="http://www.w3.org/1999/xlink" x="0px" y="0px"
	 viewBox="0 0 320 70" style="enable-background:new 0 0 320 70;" xml:space="preserve">
<style type="text/css">
	.st0{fill:#FFFFFF;}
</style>
<g id="XMLID_47_">
	<g id="XMLID_144_">
		<path id="XMLID_156_" class="st0" d="M163.4,24.1H146c0.1,1.3,1.1,4.9,6.1,4.9c1.4,0,3.7-0.5,5-2.6h5.8c-0.3,1.1-2.9,7.6-10.4,7.6
			c-3.5,0-6.3-1.1-8.4-3.2c-2.1-2.1-3.5-4.9-3.5-8.4c0-3.5,1.3-6.3,3.4-8.4c2.1-2.1,4.8-3.2,8.3-3.2c3.5,0,6.2,1,8.2,3.1
			c2,2,3,4.9,3,8.5L163.4,24.1z M157.9,20c-0.8-3.3-3.1-4.3-5.9-4.3c-2,0-5.5,1.5-5.5,4.3H157.9z"/>
		<path id="XMLID_153_" class="st0" d="M171.5,4.3v8.6c2.7-1.5,4.9-2.1,7.7-2.1c3.2,0,5.8,1.1,7.9,3.3c2.1,2.2,3.2,4.9,3.2,8.2
			c0,3.4-1.1,6.2-3.2,8.4c-2.1,2.2-4.8,3.3-8,3.3c-2.7,0-4.9-0.3-7.6-1.8v1.2h-5.4v-29H171.5z M184.1,22.6c0-1.9-0.6-3.5-1.7-4.7
			c-1.2-1.2-2.6-1.9-4.4-1.9c-1.9,0-3.4,0.6-4.6,1.8c-1.2,1.2-1.8,2.7-1.8,4.6c0,2,0.6,3.5,1.7,4.7c1.2,1.2,2.7,1.8,4.6,1.8
			c1.8,0,3.3-0.6,4.4-1.8C183.5,25.9,184.1,24.4,184.1,22.6z"/>
		<path id="XMLID_151_" class="st0" d="M198,11.4v21.9h-5.4V11.4H198z"/>
		<path id="XMLID_149_" class="st0" d="M198,4.4v5.1h-5.4V4.4H198z"/>
		<path id="XMLID_146_" class="st0" d="M219,11.4h5v21.9h-5V31c-2.3,2.3-4.8,2.9-7.4,2.9c-3.2,0-5.8-1.1-7.8-3.3
			c-2.1-2.2-3.1-5-3.1-8.4c0-3.3,1-6,3.1-8.2c2.1-2.2,4.6-3.3,7.7-3.3c2.7,0,5.3,0.6,7.5,3.2V11.4z M206.2,22.3
			c0,1.9,0.6,3.4,1.7,4.6c1.1,1.2,2.6,1.8,4.3,1.8c1.9,0,3.4-0.6,4.5-1.7c1.1-1.2,1.7-2.7,1.7-4.6c0-1.9-0.6-3.4-1.7-4.6
			c-1.1-1.2-2.6-1.8-4.5-1.8c-1.7,0-3.2,0.6-4.3,1.8C206.7,19,206.2,20.5,206.2,22.3z"/>
		<polygon id="XMLID_145_" class="st0" points="152,0 138.6,0 124.3,14.5 110,0 96.5,0 117.5,22 96.5,44 110,44 124.3,29.5 
			138.6,44 152,44 131,22 		"/>
	</g>
</g>
<g>
	<path class="st0" d="M4.6,61.7c-0.9-0.5-1.4-0.7-2-0.7c-1.1,0-1.9,0.7-1.9,1.7c0,2.4,4.3,1.2,4.3,4.4c0,1.4-1.1,2.5-2.6,2.5
		c-0.7,0-1.5-0.3-2.3-0.8v-0.8c1,0.7,1.6,1,2.3,1c1.1,0,1.9-0.8,1.9-1.8c0-2.5-4.3-1.4-4.3-4.4c0-1.3,1.2-2.4,2.6-2.4
		c0.7,0,1.4,0.2,2.1,0.6V61.7z"/>
	<path class="st0" d="M12.5,69.5c-2.6,0-4.7-2-4.7-4.6c0-2.6,2.1-4.6,4.7-4.6c2.7,0,4.7,2,4.7,4.6C17.2,67.5,15.2,69.5,12.5,69.5z
		 M12.5,61c-2.2,0-4,1.7-4,3.9c0,2.2,1.8,3.9,4,3.9c2.2,0,4-1.7,4-3.9C16.5,62.7,14.8,61,12.5,61z"/>
	<path class="st0" d="M25.1,61h-3.9v3.4h3.5V65h-3.5v4.4h-0.7v-8.9h4.6V61z"/>
	<path class="st0" d="M34.2,61h-3.4v8.4h-0.7V61h-3.4v-0.6h7.4V61z"/>
	<path class="st0" d="M39.6,69.5h-0.2l-3.6-9h0.7l3,7.4l3-7.4h0.2l3,7.4l3-7.4h0.7l-3.6,9h-0.2l-3-7.5L39.6,69.5z"/>
	<path class="st0" d="M58.8,69.4h-0.7l-1.4-3.1h-4.4l-1.4,3.1h-0.7l4.1-9h0.4L58.8,69.4z M54.5,61.5l-1.9,4.2h3.8L54.5,61.5z"/>
	<path class="st0" d="M63.8,60.5c2.2,0,3,1.1,3,2.3c0,1-0.6,1.8-1.7,2.2c0.4,0.2,0.8,0.7,1.2,1.4l2,3.1h-0.8L65.9,67
		c-1.1-1.7-1.4-1.8-2.5-1.8h-1.2v4.3h-0.7v-8.9H63.8z M62.2,64.5h1.5c1.6,0,2.3-0.7,2.3-1.8c0-1-0.7-1.7-2.4-1.7h-1.5V64.5z"/>
	<path class="st0" d="M75.5,61h-4.2v3.6h4.1v0.6h-4.1v3.6h4.3v0.6h-5v-8.9h4.9V61z"/>
	<path class="st0" d="M86.9,60.5c3.8,0,4.9,2.5,4.9,4.5c0,2.1-1.2,4.5-4.8,4.5h-3.2v-8.9H86.9z M84.5,68.8H87c2.1,0,4-1.4,4-3.9
		c0-2.3-1.7-3.9-4.1-3.9h-2.5V68.8z"/>
	<path class="st0" d="M99.9,61h-4.2v3.6h4.1v0.6h-4.1v3.6h4.3v0.6h-5v-8.9h4.9V61z"/>
	<path class="st0" d="M106,69.5h-0.2l-3.8-9h0.7l3.2,7.6l3.1-7.6h0.7L106,69.5z"/>
	<path class="st0" d="M117.3,61h-4.2v3.6h4.1v0.6h-4.1v3.6h4.3v0.6h-5v-8.9h4.9V61z"/>
	<path class="st0" d="M121.1,68.8h4.4v0.6h-5.1v-8.9h0.7V68.8z"/>
	<path class="st0" d="M132.4,69.5c-2.6,0-4.7-2-4.7-4.6c0-2.6,2.1-4.6,4.7-4.6c2.7,0,4.7,2,4.7,4.6
		C137.2,67.5,135.1,69.5,132.4,69.5z M132.5,61c-2.2,0-4,1.7-4,3.9c0,2.2,1.8,3.9,4,3.9c2.2,0,4-1.7,4-3.9
		C136.4,62.7,134.7,61,132.5,61z"/>
	<path class="st0" d="M142.9,60.5c2.1,0,2.9,1.1,2.9,2.4c0,1.2-0.7,2.4-3,2.4h-1.7v4.2h-0.7v-8.9H142.9z M141.1,64.6h1.7
		c1.7,0,2.3-0.8,2.3-1.8c0-1-0.6-1.8-2.2-1.8h-1.7V64.6z"/>
	<path class="st0" d="M156.2,60.5h0.7v8.9h-0.7v-7.9h0l-3.4,4.2l-3.4-4.2h0v7.9h-0.7v-8.9h0.7l3.4,4.2L156.2,60.5z"/>
	<path class="st0" d="M165.4,61h-4.2v3.6h4.1v0.6h-4.1v3.6h4.3v0.6h-5v-8.9h4.9V61z"/>
	<path class="st0" d="M176.5,69.4H176l-6.8-7.8v7.8h-0.7v-8.9h0.6l6.8,7.8v-7.8h0.7V69.4z"/>
	<path class="st0" d="M186.6,61h-3.4v8.4h-0.7V61h-3.4v-0.6h7.4V61z"/>
	<path class="st0" d="M198.1,60.5c0.5,0,0.7,0,1,0c0.6,0.1,1.3,0.2,1.8,0.5c0.9,0.4,1.7,1.2,2.1,2.1c0.2,0.5,0.4,1.1,0.4,1.8
		c0,2.1-1.3,3.8-3.4,4.3c-0.5,0.1-1.3,0.2-2.1,0.2l-3.5,0v-8.9H198.1z M196.7,67.7h0.9c1,0,1.5-0.1,2-0.3c0.9-0.4,1.5-1.3,1.5-2.5
		c0-1.2-0.5-2.1-1.5-2.5c-0.5-0.2-0.8-0.2-1.7-0.2h-1.1V67.7z"/>
	<path class="st0" d="M213.8,69.5c-2.9,0-5.1-2-5.1-4.6c0-2.6,2.2-4.6,5.1-4.6c2.9,0,5.1,2,5.1,4.6C219,67.5,216.7,69.5,213.8,69.5z
		 M213.8,62.2c-1.7,0-2.8,1.1-2.8,2.7c0,1.6,1.1,2.7,2.8,2.7c1.6,0,2.8-1.1,2.8-2.7C216.7,63.3,215.6,62.2,213.8,62.2z"/>
	<path class="st0" d="M233.8,69.4H232l-4.9-5.5v5.5h-2.2v-8.9h2l4.8,5.3v-5.3h2.2V69.4z"/>
	<path class="st0" d="M246.6,69.4H240v-8.9h6.5v1.7h-4.2v1.8h4v1.7h-4v2.1h4.3V69.4z"/>
	<path class="st0" d="M263.8,60.5c1.3,0,1.8,0.1,2.3,0.4c0.7,0.5,1.2,1.3,1.2,2.1c0,0.7-0.3,1.3-0.8,1.7c-0.2,0.2-0.4,0.3-0.8,0.5
		c0.5,0.2,0.9,0.7,1.3,1.7l0.4,0.8l0.2,0.5l0.3,0.6l0.2,0.5l0.1,0.1h-2.5l-0.1-0.1l-0.2-0.4l-0.2-0.4l-0.3-0.6l-0.3-0.8
		c-0.3-0.8-0.8-1.3-1.2-1.4c-0.2-0.1-0.2-0.1-0.6-0.1h-0.3v3.6h-2.3v-8.9H263.8z M262.6,64.1h0.9l0.2,0l0.3,0c0.6,0,1-0.4,1-1
		c0-0.7-0.4-1-1.2-1h-1.1V64.1z"/>
	<path class="st0" d="M275.7,69.4h-2.3v-8.9h2.3V69.4z"/>
	<path class="st0" d="M290.5,63l-0.1-0.1c-1-0.5-2.2-0.7-3.2-0.7c-2,0-3.3,1.1-3.3,2.8c0,1.5,1.2,2.6,2.9,2.6c0.6,0,1.1-0.1,1.6-0.3
		v-1h-1.3v-1.7h3.6v3.7c-0.9,0.7-2.3,1.2-3.8,1.2c-3.1,0-5.3-1.9-5.3-4.6c0-2.7,2.2-4.6,5.4-4.6c0.8,0,1.6,0.1,2.3,0.3
		c0.4,0.1,0.7,0.2,1.2,0.4V63z"/>
	<path class="st0" d="M305.7,69.4h-2.2v-3.6h-4.4v3.6h-2.3v-8.9h2.3v3.6h4.4v-3.6h2.2V69.4z"/>
	<path class="st0" d="M320,62.1h-3.2v7.3h-2.3v-7.3h-3.2v-1.7h8.7V62.1z"/>
</g>
</svg>
